<?xml version="1.0" encoding="utf-8"?><svg viewBox="0 0 100 100" xmlns="http://www.w3.org/2000/svg" width="6px" height="6px" xmlns:xlink="http://www.w3.org/1999/xlink" style="width:100%;height:100%;background-size:initial;background-repeat:initial;background-position-y:initial;background-position-x:initial;background-origin:initial;background-image:initial;background-color:rgb(255, 255, 255);background-clip:initial;background-attachment:initial;animation-play-state:paused" ><g class="ldl-scale" style="transform-origin:50% 50%;transform:rotate(0deg) scale(0.02, 0.02);animation-play-state:paused" ><path fill="#333" d="M83.4 62.4H55.1c-5.7 0-10.4 4-11.4 8.7H28.1c-.7-3.4-2.8-6.5-6.2-8.1V36.9c3.4-1.5 5.5-4.7 6.2-8h15.6c1 4.7 5.7 8.7 11.4 8.7h28.4c6.4 0 11.6-5 11.6-11.4s-5.2-11.4-11.6-11.4H55.1c-5.7 0-10.4 4-11.4 10.1H28.1c-.7-4-2.8-7.5-6.2-9V7.4H11.8v8.4C7.8 17.6 5 21.7 5 26.3s2.8 8.7 6.8 10.5V63C7.8 64.9 5 68.9 5 73.6s2.8 8.7 6.8 10.5v8.5h10.1v-8.5c3.4-1.5 5.5-5 6.2-9h15.6c1 6 5.7 10.1 11.4 10.1h28.4c6.4 0 11.6-5 11.6-11.4s-5.3-11.4-11.7-11.4zM55.1 18.8h28.4c4.1 0 7.4 3.3 7.4 7.4s-3.3 7.4-7.4 7.4H55.1c-4.1 0-7.4-3.3-7.4-7.4s3.3-7.4 7.4-7.4zM9.4 26.3c0-4.1 3.3-7.4 7.4-7.4s7.4 3.3 7.4 7.4-3.3 7.4-7.4 7.4-7.4-3.3-7.4-7.4zM16.7 81c-4.1 0-7.4-3.3-7.4-7.4 0-4.1 3.3-7.4 7.4-7.4s7.4 3.3 7.4 7.4c0 4.1-3.3 7.4-7.4 7.4zm66.7.2H55.1c-4.1 0-7.4-3.3-7.4-7.4 0-4.1 3.3-7.4 7.4-7.4h28.4c4.1 0 7.4 3.3 7.4 7.4-.1 4.1-3.4 7.4-7.5 7.4z" style="fill:rgb(51, 51, 51);animation-play-state:paused" ></path>
<metadata xmlns:d="https://loading.io/stock/" style="animation-play-state:paused" ><d:name style="animation-play-state:paused" >timeline</d:name>
<d:tags style="animation-play-state:paused" >timeline,schedule,event,chronology,visualization,visualize</d:tags>
<d:license style="animation-play-state:paused" >by</d:license>
<d:slug style="animation-play-state:paused" >yq2uwo</d:slug></metadata></g><!-- generated by https://loading.io/ --></svg>